<svg xmlns="http://www.w3.org/2000/svg" width="30" height="23" viewBox="0 0 30 23" fill="none"><path d="M27.188.5H2.813A2.812 2.812 0 0 0 0 3.313v16.875A2.812 2.812 0 0 0 2.813 23h24.375A2.813 2.813 0 0 0 30 20.187V3.313A2.812 2.812 0 0 0 27.187.5zm0 2.813v2.39c-1.314 1.07-3.409 2.734-7.886 6.24-.987.776-2.942 2.641-4.302 2.62-1.36.021-3.315-1.844-4.302-2.62-4.477-3.506-6.572-5.17-7.886-6.24v-2.39h24.375zM2.813 20.188V9.312a998.35 998.35 0 0 0 6.148 4.843c1.28 1.008 3.524 3.234 6.039 3.22 2.503.014 4.717-2.18 6.038-3.22a998.747 998.747 0 0 0 6.15-4.843v10.876H2.813z" fill="#fff"></path></svg>